<svg xmlns="http://www.w3.org/2000/svg" height="1024" preserveAspectRatio="none" style="display: block;" version="1.1" viewBox="0 0 2048 2048" width="1024">
<path d="M 929.8 0 L 1112.77 0 L 1113.5 3.19823 C 1122.91 5.47561 1135.59 6.64374 1145.44 7.77358 C 1254.56 20.2849 1360.17 53.0098 1459.45 99.5505 C 1468.44 103.765 1476.83 108.201 1485.31 113.38 C 1518.11 80.2886 1551.16 47.4537 1584.47 14.8783 C 1589.88 9.63225 1601.76 3.50289 1603.39 0 L 1607.84 0 L 1608.64 3.1427 C 1619.92 9.59528 1628.63 14.6437 1622.21 29.0778 C 1603.39 71.4378 1580.04 112.897 1560.17 154.657 C 1583.95 169.731 1604.91 182.242 1627.74 198.939 C 1837.87 352.624 1968.03 556.437 2024.55 809.208 C 2030.53 835.633 2035.37 862.305 2039.05 889.149 C 2039.81 894.531 2041.55 915.343 2043.69 918.443 C 2045.26 919.027 2046.46 919.479 2048 920.152 L 2048 1129.85 C 2046.35 1130.15 2043.62 1130.23 2043.38 1131.33 C 2040.31 1145.39 2036.95 1174.08 2034.81 1187.77 C 2026.85 1237.61 2015.07 1286.76 1999.58 1334.8 C 1892.27 1668.74 1621.94 1924.82 1282.68 2013.89 C 1249.5 2022.94 1215.85 2030.18 1181.89 2035.57 C 1161.38 2038.63 1140.3 2041.21 1119.71 2043.81 C 1115.85 2044.3 1115.49 2045.01 1113.62 2048 L 932.365 2048 C 928.29 2042.34 901.769 2041.01 894.21 2040.09 C 880.644 2038.42 867.835 2036.4 854.384 2034.03 C 773.332 2020.08 694.14 1996.91 618.35 1964.97 C 602.312 1996.16 591.199 2017.67 573.008 2048 L 540.485 2048 L 540.024 2047.18 C 529.262 2027.74 546.983 1971.31 548.742 1947.25 C 549.003 1943.68 550.877 1936.76 551.895 1933.15 C 458.184 1890.81 357.889 1809.89 286.759 1736.44 C 129.484 1573.94 30.6917 1363.77 5.92306 1138.99 C 5.04641 1131.38 5.32789 1122.75 0 1118.5 L 0 930.4 C 4.6661 927.398 4.75985 920.531 5.31686 914.831 C 12.5102 841.214 28.4588 772.879 51.0927 702.39 C 138.812 433.64 334.699 213.684 591.535 95.5439 C 632.479 76.5743 666.691 64.4034 709.269 50.3202 C 757.585 34.2356 807.061 21.871 857.263 13.3346 C 869.375 11.3277 925.46 4.9173 930.23 2.46992 L 929.8 0 z" fill="rgb(31,2,35)" transform="translate(0,0)"></path>
<path d="M 984.233 30.5604 C 1017.62 28.1223 1056.51 30.6338 1090.12 32.5226 C 1228.94 40.325 1338.9 78.0731 1464.41 133.516 C 1446.9 156.626 1425.49 178.741 1406.7 201.037 C 1272.35 360.435 1157.76 532.572 1051.56 711.808 C 964.167 859.286 879.428 1008.2 809.838 1165.41 C 798.68 1161.23 783.231 1156.92 771.434 1152.99 C 747.592 1145.08 724.064 1136.24 700.904 1126.51 C 547.869 1061.5 427.343 958.752 341.175 816.394 C 323.47 787.144 308.521 758.221 293.749 727.361 C 286.733 712.702 280.039 696.629 272.113 682.543 C 270.697 680.027 267.457 678.561 264.626 678.108 C 260.21 677.412 255.711 678.695 252.326 681.616 C 250.196 683.429 247.603 686.553 247.742 689.354 C 248.373 702.082 259.315 721.177 264.646 732.719 C 302.052 813.699 348.113 887.559 407.14 954.648 C 406.965 987.673 409.788 1029.06 411.076 1062.82 L 417.518 1252.9 C 417.743 1259.86 417.354 1282.54 422.681 1287.34 C 431.246 1295.06 438.685 1292.86 446.198 1284.81 C 464.382 1265.34 481.361 1244.68 498.612 1224.34 C 523.263 1195.34 548.38 1166.74 573.954 1138.55 L 580.931 1347.84 C 581.084 1381.3 583.683 1415.63 584.261 1449.15 C 584.361 1454.95 585.559 1464.13 590.219 1467.95 C 597.029 1473.52 606.992 1473.03 613.034 1466.48 C 627.509 1450.36 641.196 1433.12 655.071 1416.35 C 688.168 1376.44 720.822 1336.17 753.028 1295.54 C 746.565 1315.49 736.467 1336.43 728.701 1356.25 C 711.354 1400.78 694.319 1445.43 677.595 1490.19 C 627 1625.09 586.698 1763.62 557.034 1904.6 C 478.638 1863.05 406.184 1811.15 341.618 1750.3 C 147.318 1567.12 34.4181 1313.8 28.1055 1046.85 C 26.7982 1004.12 29.4158 966.084 33.8404 923.702 C 48.6974 767.692 100.607 617.488 185.248 485.595 C 215.087 438.425 249.149 394.065 287.015 353.06 C 469.363 159.398 716.478 38.426 984.233 30.5604 z" fill="rgb(226,25,155)" transform="translate(0,0)"></path>
<path d="M 683.969 581.545 C 749.507 575.317 807.623 623.547 813.582 689.11 C 819.541 754.673 771.073 812.591 705.486 818.281 C 640.278 823.939 582.768 775.812 576.843 710.628 C 570.919 645.443 618.81 587.736 683.969 581.545 z" fill="rgb(31,2,35)" transform="translate(0,0)"></path>
<path d="M 1546.62 179.408 C 1669.98 258.352 1760.42 340.668 1844.01 460.857 C 1889.39 525.46 1926.38 595.564 1954.1 669.488 C 2047.3 917.192 2039.2 1191.63 1931.57 1433.41 C 1821.34 1675.55 1618.75 1863.48 1369.03 1955.25 C 1185.99 2024.82 986.25 2037.67 795.808 1992.13 C 746.949 1980.88 678.928 1960.19 633.195 1939.31 C 671.741 1860.34 714.542 1780.2 754.318 1701.69 L 820.473 1571.83 C 833.243 1547.09 847.359 1518.84 861.348 1494.94 C 864.721 1510.6 868.142 1526.23 871.989 1541.8 C 874.485 1551.9 877.879 1564.91 889.121 1568.54 C 897.851 1571.36 908.743 1567.16 912.005 1558.22 C 916.657 1545.48 920.351 1532.37 924.733 1519.51 L 956.23 1428.92 L 996.01 1315.01 C 1003.26 1294.44 1012.13 1271.65 1018.38 1250.99 C 1032.46 1287.89 1044.96 1325.14 1058.22 1362.34 C 1071.65 1399.95 1085.38 1437.45 1099.42 1474.83 C 1105.66 1491.77 1111.8 1508.75 1117.83 1525.77 C 1122.18 1538.06 1130.87 1578.03 1153.01 1566.08 C 1162.18 1561.12 1164.49 1550.31 1166.78 1540.78 C 1194.27 1437.37 1220.93 1333.74 1246.75 1229.9 C 1264.54 1250.14 1282.79 1274.49 1299.49 1295.91 C 1330.38 1335.59 1361.52 1375.08 1392.9 1414.39 C 1405.27 1429.93 1418.21 1445.72 1430.26 1461.91 C 1441.21 1476.62 1460.39 1475.16 1463.62 1457.03 C 1465.91 1444.18 1464.85 1425.25 1465.14 1411.51 L 1467.18 1335.62 C 1468.18 1300.68 1468.94 1265.75 1470.34 1230.82 C 1471.58 1200.25 1472.96 1169.59 1472.98 1139 C 1517.12 1187.74 1558.34 1239.27 1602.59 1287.93 C 1610.05 1296.13 1625.06 1291.87 1626.19 1277.99 C 1627.43 1262.73 1628.07 1248.23 1628.63 1232.92 L 1631.43 1154.17 C 1633.98 1090.12 1638.71 1020.23 1639.01 956.791 C 1644.38 949.549 1650.81 942.03 1656.53 935.021 C 1711.76 867.408 1755.61 791.975 1791.91 712.789 C 1798.18 699.127 1806.52 679.972 1783.32 678.616 C 1769.12 677.787 1762.21 710.943 1756.33 720.26 C 1715.42 807.24 1660.83 895.439 1592.08 963.055 C 1438.46 1111.6 1232.44 1193.54 1018.76 1191.09 C 1031.4 1165.38 1047.62 1136.6 1061.03 1110.77 L 1188.54 868.147 C 1207.08 832.916 1228.64 794.281 1245.59 758.777 C 1252.26 768.674 1257.66 776.108 1266.37 784.418 C 1290.19 807.445 1322.27 819.906 1355.39 818.988 C 1422.87 816.668 1472.25 760.362 1468.96 693.336 C 1467.5 661.847 1453.49 632.256 1430.05 611.172 C 1404.01 587.691 1373.62 578.942 1339.2 580.551 C 1350.09 560.134 1359.7 540.004 1370.19 519.588 L 1427.81 409 L 1546.62 179.408 z" fill="rgb(226,25,155)" transform="translate(0,0)"></path>
<path d="M 1568.66 71.0425 L 1569.32 72.0942 C 1560.96 93.3126 1540.39 130.834 1529.77 151.051 L 1467.71 270.298 L 1252.38 684.271 C 1023.13 1118.57 796.481 1554.24 572.432 1991.25 C 571.228 1989.62 571.233 1989.87 571.574 1987.7 C 603.208 1785.91 668.741 1587.43 743.532 1398.12 C 774.376 1318.29 807.322 1239.28 842.336 1161.19 C 866.912 1108.5 892.598 1056.33 919.377 1004.72 C 940.382 965.704 961.725 926.868 983.404 888.22 C 1085.75 699.793 1201.01 518.669 1328.35 346.146 C 1371.81 287.907 1417.8 231.598 1466.19 177.381 C 1486.52 154.222 1505.68 132.994 1527.53 111.23 C 1541.46 97.3529 1553.45 84.0049 1568.66 71.0425 z" fill="rgb(84,3,140)" transform="translate(0,0)"></path>
<path d="M 602.134 1109.74 C 623.123 1119.98 644.468 1132.9 665.621 1142.6 C 708.84 1162.43 753.42 1177.94 798.526 1192.66 C 770.192 1232.34 729.005 1280.91 697.679 1318.58 C 668.656 1352.24 641.185 1387.98 611.368 1422.22 C 606.674 1318.11 603.595 1213.94 602.134 1109.74 z" fill="rgb(84,3,140)" transform="translate(0,0)"></path>
<path d="M 1444.67 1109.92 L 1445.56 1110.62 C 1447.25 1115.8 1443.7 1180.41 1443.39 1190.24 L 1436.89 1421.49 C 1426.81 1411.24 1411.74 1391.32 1402.67 1379.86 L 1356.79 1322.47 C 1322.47 1277.96 1287.63 1234.92 1253.79 1189.87 C 1328.88 1167.6 1375.68 1144.92 1444.67 1109.92 z" fill="rgb(84,3,140)" transform="translate(0,0)"></path>
<path d="M 1225.08 1196.28 L 1225.49 1196.58 C 1226.62 1199.95 1219.75 1222.31 1218.48 1227.31 L 1170.34 1413.11 C 1161.43 1447.24 1153.77 1480.39 1143.85 1514.37 C 1134.09 1489.88 1124.53 1461.75 1115.38 1436.76 C 1088.68 1364.47 1062.4 1292.02 1036.54 1219.41 C 1101.09 1220.31 1162.57 1211.49 1225.08 1196.28 z" fill="rgb(84,3,140)" transform="translate(0,0)"></path>
<path d="M 436.045 985.618 C 441.457 989.094 467.321 1014.73 476.012 1021.65 C 508.42 1047.47 539.307 1070.92 573.879 1093.75 C 550.449 1119.44 528.303 1147.16 504.78 1173.4 C 484.923 1196.19 465.217 1219.1 445.663 1242.15 C 443.783 1200.85 442.168 1159.53 440.815 1118.21 C 439.596 1075.29 438.852 1028.22 436.045 985.618 z" fill="rgb(84,3,140)" transform="translate(0,0)"></path>
<path d="M 1608.81 987.965 C 1610.72 990.561 1601.39 1220.38 1599.95 1240.66 C 1579.68 1218.26 1559.77 1195.56 1540.22 1172.54 C 1518.62 1146.8 1493.9 1120.13 1471.56 1094.49 C 1490.38 1081.09 1509.4 1069.41 1528.6 1055.26 C 1558.73 1033.07 1581.14 1012.43 1608.81 987.965 z" fill="rgb(84,3,140)" transform="translate(0,0)"></path>
<path d="M 984.739 1257.77 C 985.438 1267.01 944.043 1376.36 938.797 1391.38 C 924.74 1431.63 910.519 1477.29 896.135 1517.39 L 892.39 1505.76 C 888.167 1491.33 883.777 1476.95 879.222 1462.62 C 890.775 1432.77 910.153 1399.37 924.899 1370.5 C 944.324 1332.48 963.88 1295.04 984.739 1257.77 z" fill="rgb(84,3,140)" transform="translate(0,0)"></path>
<metadata><recraft-signature>{"signed_by": "recraft", "signature_b64": "NkgOws8EbLYxcyNZjA3Ogjx5GjW9gnz2pPM9WAVrq0QoFH0bztkpGi+EXwqfR04e1hNEx/bi3wYwC1XPjNS+Bw==", "signing_algo": "Ed25519", "generation_timestamp": 1783582105, "identifier": "98d53205-c597-445e-941a-9334a38044d3"}</recraft-signature></metadata></svg>